<svg width="340" height="199" viewBox="0 0 340 199" fill="none" xmlns="http://www.w3.org/2000/svg">
<path d="M314.92 282.18C331.65 268.85 340.88 248.82 339.34 229.22C337.16 201.57 315.71 181.94 287.93 170.29C277.76 166.02 267.08 162.55 257.56 157.27C234.58 144.52 235.65 124.57 225.15 105.12C196.88 52.7201 118 90.9301 69.4101 78.6501C37.7901 70.6601 15.6501 44.7001 14.5401 16.5301C14.4601 14.5101 14.4501 12.3801 13.2801 10.6201C12.4701 9.41008 11.1801 8.50009 9.87012 7.69009C-10.5799 -5.00991 -41.3199 -0.309904 -59.5599 13.3201C-79.7299 28.4001 -88.9599 51.5801 -94.4199 74.1201C-98.7799 92.1101 -101.28 110.82 -96.9499 128.82C-85.2099 177.68 -27.9899 208.34 -4.12987 253.8C1.02013 263.62 4.58013 274.07 10.6901 283.47C26.2301 307.37 56.2601 321.47 86.2201 330.57C123.16 341.79 164.64 347.15 201.08 334.78C224.42 326.86 244.1 312.2 267.6 304.64C283.97 299.35 302.09 292.4 314.92 282.18Z" fill="url(#paint0_linear_15_3)"/>
<defs>
<linearGradient id="paint0_linear_15_3" x1="222.208" y1="78.9067" x2="79.5235" y2="182.863" gradientUnits="userSpaceOnUse">
<stop offset="0.1031" stop-color="#375253" stop-opacity="0.6"/>
<stop offset="0.524038" stop-color="#2D4748" stop-opacity="0.5"/>
</linearGradient>
</defs>
</svg>
