<svg width="226" height="100" viewBox="0 0 226 100" fill="none" xmlns="http://www.w3.org/2000/svg">
<path d="M2.74015 16.6499C-2.86985 35.3099 3.56014 62.62 18.1101 77.17C32.6501 91.72 55.6901 99.45 77.6801 97.17C93.5401 95.52 108.16 89.1299 123.45 85.1199C138.74 81.1099 156.43 79.7699 169.71 87.4999C176.56 91.4799 182.09 97.7699 190.16 99.2099C197.41 100.51 204.99 97.3299 209.92 92.5199C214.84 87.7099 217.53 81.4899 219.59 75.2899C225.39 57.8799 227.04 39.4299 224.42 21.4499C222.58 8.82994 218.35 -4.04007 208.57 -13.4901C193.73 -27.8401 169.85 -31.2501 147.95 -34.2401C128.27 -36.9301 108.53 -39.9701 88.6101 -39.8001C68.6901 -39.6401 48.3102 -36.0501 31.7002 -26.4801C15.0802 -16.9201 2.79015 -0.700068 2.74015 16.6499Z" fill="url(#paint0_linear_15_5)"/>
<defs>
<linearGradient id="paint0_linear_15_5" x1="165.497" y1="-7.73469" x2="104.604" y2="48.037" gradientUnits="userSpaceOnUse">
<stop offset="0.1031" stop-color="#375253" stop-opacity="0.6"/>
<stop offset="0.524038" stop-color="#2D4748" stop-opacity="0.5"/>
</linearGradient>
</defs>
</svg>
