<svg width="19" height="19" viewBox="0 0 19 19" fill="none" xmlns="http://www.w3.org/2000/svg">
<path d="M9.70972 14.4601C12.4767 14.4601 14.7197 12.217 14.7197 9.45007C14.7197 6.68313 12.4767 4.44006 9.70972 4.44006C6.94277 4.44006 4.69971 6.68313 4.69971 9.45007C4.69971 12.217 6.94277 14.4601 9.70972 14.4601Z" fill="url(#paint0_linear_147_6)"/>
<path d="M9.70941 18.0301C14.448 18.0301 18.2894 14.1887 18.2894 9.45013C18.2894 4.71153 14.448 0.870117 9.70941 0.870117C4.97081 0.870117 1.12939 4.71153 1.12939 9.45013C1.12939 14.1887 4.97081 18.0301 9.70941 18.0301Z" stroke="url(#paint1_linear_147_6)" stroke-miterlimit="10"/>
<defs>
<linearGradient id="paint0_linear_147_6" x1="4.69932" y1="9.45046" x2="14.7197" y2="9.45046" gradientUnits="userSpaceOnUse">
<stop offset="0.0277" stop-color="#00F0FF"/>
<stop offset="0.7154" stop-color="#11A7B1"/>
<stop offset="1" stop-color="#1A666B"/>
</linearGradient>
<linearGradient id="paint1_linear_147_6" x1="1.12873" y1="9.4508" x2="18.2894" y2="9.4508" gradientUnits="userSpaceOnUse">
<stop offset="0.0277" stop-color="#00F0FF"/>
<stop offset="0.7154" stop-color="#11A7B1"/>
<stop offset="1" stop-color="#1A666B"/>
</linearGradient>
</defs>
</svg>
