<svg width="168" height="226" viewBox="0 0 168 226" fill="none" xmlns="http://www.w3.org/2000/svg">
<path d="M3.28036 242.33C-1.73964 220.75 3.28034 197.28 16.4403 179.48C31.1103 159.64 54.6903 151.29 75.4203 139.58C85.2603 134.01 94.8404 127.47 102.21 118.78C105.88 114.45 108.89 109.64 111.12 104.42C113.47 98.89 114.98 93.06 116.2 87.2C118.66 75.31 120.09 63.15 124.79 51.85C129.12 41.44 135.65 31.95 143.77 24.13C161.15 7.37999 185.62 -0.740031 209.59 1.91997C212.64 2.25997 215.69 2.78 218.7 3.39C219.27 3.51 219.52 2.65 218.94 2.51C195.5 -3.45 169.2 2.58997 150.12 17.23C141.32 23.99 133.89 32.5 128.38 42.13C125.59 46.99 123.3 52.14 121.56 57.47C119.65 63.35 118.44 69.42 117.32 75.49C115.05 87.78 113.07 100.5 106.39 111.31C100.18 121.36 90.8004 128.98 80.8904 135.18C60.5104 147.93 36.1903 155.37 19.8503 173.84C5.30031 190.29 -1.6697 213.14 1.2203 234.91C1.5603 237.47 2.06033 240 2.68033 242.5C2.76033 242.89 3.37036 242.72 3.28036 242.33Z" fill="url(#paint0_linear_147_5)"/>
<path d="M43.6302 216.67C40.4902 209.48 41.1901 201.33 44.2201 194.23C47.3601 186.85 52.8802 180.94 59.3302 176.28C72.8202 166.54 89.3002 162.2 103.08 152.95C109.77 148.46 115.41 142.8 119.68 135.96C123.86 129.26 126.76 121.83 129 114.27C133.97 97.49 135.59 79.73 142.48 63.52C148.24 49.97 158.77 36.95 173.53 32.99C175.24 32.53 176.98 32.16 178.74 31.92C179.12 31.87 179.03 31.23 178.65 31.25C163.74 32.28 151.6 44.1099 144.75 56.5999C136.17 72.2499 134.14 90.3499 129.87 107.41C127.88 115.35 125.4 123.22 121.66 130.53C117.88 137.92 112.78 144.46 106.2 149.56C92.7102 160.02 75.7301 164.36 61.5401 173.65C54.9301 177.98 48.9102 183.41 45.0702 190.4C41.5102 196.87 39.6502 204.62 41.2802 211.93C41.6702 213.69 42.2802 215.38 43.0702 217.01C43.2402 217.41 43.8002 217.06 43.6302 216.67Z" fill="url(#paint1_linear_147_5)"/>
<path d="M168.06 71.93C159.39 74.4 152.39 80.9501 147.33 88.1901C141.85 96.0501 138.36 105.06 135.82 114.25C132.85 124.97 130.92 135.98 127.38 146.54C125.68 151.61 123.63 156.61 120.86 161.19C118.4 165.25 115.4 168.98 111.94 172.23C105.22 178.53 96.4602 183.01 87.0702 182.69C85.9102 182.65 84.7502 182.54 83.6002 182.37C83.0602 182.29 82.8102 183.09 83.3702 183.21C92.5102 185.16 101.8 181.78 109.05 176.27C112.85 173.38 116.19 169.93 119.04 166.1C122.06 162.04 124.39 157.58 126.31 152.91C130.59 142.51 132.74 131.41 135.4 120.53C137.76 110.84 140.65 101.28 145.73 92.6301C150.37 84.7301 156.7 77.9001 165.04 73.9001C166.08 73.4001 167.14 72.95 168.21 72.54C168.6 72.39 168.46 71.81 168.06 71.93Z" fill="url(#paint2_linear_147_5)"/>
<defs>
<linearGradient id="paint0_linear_147_5" x1="0.560404" y1="121.471" x2="219.023" y2="121.471" gradientUnits="userSpaceOnUse">
<stop stop-color="#00F0FF"/>
<stop offset="0.6103" stop-color="#3F4541"/>
<stop offset="1"/>
</linearGradient>
<linearGradient id="paint1_linear_147_5" x1="40.6732" y1="124.213" x2="178.828" y2="124.213" gradientUnits="userSpaceOnUse">
<stop stop-color="#00F0FF"/>
<stop offset="0.6103" stop-color="#3F4541"/>
<stop offset="1"/>
</linearGradient>
<linearGradient id="paint2_linear_147_5" x1="83.047" y1="127.837" x2="168.345" y2="127.837" gradientUnits="userSpaceOnUse">
<stop stop-color="#00F0FF"/>
<stop offset="0.6103" stop-color="#3F4541"/>
<stop offset="1"/>
</linearGradient>
</defs>
</svg>
